<?xml version="1.0" encoding="UTF-8" standalone="no"?>
<!DOCTYPE svg PUBLIC "-//W3C//DTD SVG 1.1//EN"
 "http://www.w3.org/Graphics/SVG/1.1/DTD/svg11.dtd">
<!-- Generated by graphviz version 2.38.0 (20140413.2041)
 -->
<!-- Title: G Pages: 1 -->
<svg width="1023pt" height="867pt"
 viewBox="0.00 0.00 1022.65 866.62" xmlns="http://www.w3.org/2000/svg" xmlns:xlink="http://www.w3.org/1999/xlink">
<g id="graph0" class="graph" transform="scale(1 1) rotate(0) translate(4 862.619)">
<title>G</title><style>.edge>path:hover{stroke-width:8}</style>
<polygon fill="white" stroke="none" points="-4,4 -4,-862.619 1018.65,-862.619 1018.65,4 -4,4"/>
<!-- gidlogger -->
<g id="node1" class="node"><title>gidlogger</title><style>.edge>path:hover{stroke-width:8}</style>
<ellipse fill="#f91010" stroke="black" cx="534.447" cy="-829.628" rx="32.9303" ry="18"/>
<text text-anchor="middle" x="534.447" y="-827.128" font-family="Helvetica,sans-Serif" font-size="10.00" fill="#ffffff">gidlogger</text>
</g>
<!-- gidtools_gidconfig_classes -->
<g id="node5" class="node"><title>gidtools_gidconfig_classes</title><style>.edge>path:hover{stroke-width:8}</style>
<ellipse fill="#33cccc" stroke="black" cx="397.447" cy="-620.219" rx="41.0244" ry="28.9828"/>
<text text-anchor="middle" x="397.447" y="-628.719" font-family="Helvetica,sans-Serif" font-size="10.00" fill="#000000">gidtools.</text>
<text text-anchor="middle" x="397.447" y="-617.719" font-family="Helvetica,sans-Serif" font-size="10.00" fill="#000000">gidconfig.</text>
<text text-anchor="middle" x="397.447" y="-606.719" font-family="Helvetica,sans-Serif" font-size="10.00" fill="#000000">classes</text>
</g>
<!-- gidlogger&#45;&gt;gidtools_gidconfig_classes -->
<g id="edge1" class="edge"><title>gidlogger&#45;&gt;gidtools_gidconfig_classes</title><style>.edge>path:hover{stroke-width:8}</style>
<path fill="none" stroke="black" d="M534.447,-685.21C526.791,-646.152 488.42,-666.244 452.447,-649.21 448.078,-647.141 443.54,-644.932 439.028,-642.696"/>
<polygon fill="#f91010" stroke="black" points="440.376,-639.457 429.868,-638.106 437.24,-645.715 440.376,-639.457"/>
</g>
<!-- gidtools_gidconfig_data -->
<g id="node6" class="node"><title>gidtools_gidconfig_data</title><style>.edge>path:hover{stroke-width:8}</style>
<ellipse fill="#33cccc" stroke="black" cx="259.447" cy="-620.219" rx="41.0244" ry="28.9828"/>
<text text-anchor="middle" x="259.447" y="-628.719" font-family="Helvetica,sans-Serif" font-size="10.00" fill="#000000">gidtools.</text>
<text text-anchor="middle" x="259.447" y="-617.719" font-family="Helvetica,sans-Serif" font-size="10.00" fill="#000000">gidconfig.</text>
<text text-anchor="middle" x="259.447" y="-606.719" font-family="Helvetica,sans-Serif" font-size="10.00" fill="#000000">data</text>
</g>
<!-- gidlogger&#45;&gt;gidtools_gidconfig_data -->
<g id="edge2" class="edge"><title>gidlogger&#45;&gt;gidtools_gidconfig_data</title><style>.edge>path:hover{stroke-width:8}</style>
<path fill="none" stroke="black" d="M534.447,-685.21C524.918,-636.596 361.526,-664.628 314.447,-649.21 309.608,-647.625 304.669,-645.664 299.835,-643.521"/>
<polygon fill="#f91010" stroke="black" points="301.26,-640.323 290.722,-639.226 298.276,-646.655 301.26,-640.323"/>
</g>
<!-- gidtools_gidconfig_factories -->
<g id="node7" class="node"><title>gidtools_gidconfig_factories</title><style>.edge>path:hover{stroke-width:8}</style>
<ellipse fill="#35a1a1" stroke="black" cx="294.447" cy="-526.236" rx="41.0244" ry="28.9828"/>
<text text-anchor="middle" x="294.447" y="-534.736" font-family="Helvetica,sans-Serif" font-size="10.00" fill="#000000">gidtools.</text>
<text text-anchor="middle" x="294.447" y="-523.736" font-family="Helvetica,sans-Serif" font-size="10.00" fill="#000000">gidconfig.</text>
<text text-anchor="middle" x="294.447" y="-512.736" font-family="Helvetica,sans-Serif" font-size="10.00" fill="#000000">factories</text>
</g>
<!-- gidlogger&#45;&gt;gidtools_gidconfig_factories -->
<g id="edge3" class="edge"><title>gidlogger&#45;&gt;gidtools_gidconfig_factories</title><style>.edge>path:hover{stroke-width:8}</style>
<path fill="none" stroke="black" d="M534.447,-685.21C518.167,-602.154 413.496,-702.135 347.447,-649.21 333.587,-638.104 317.244,-596.293 306.408,-564.695"/>
<polygon fill="#f91010" stroke="black" points="309.601,-563.207 303.094,-554.846 302.966,-565.44 309.601,-563.207"/>
</g>
<!-- gidtools_gidconfig_functions -->
<g id="node8" class="node"><title>gidtools_gidconfig_functions</title><style>.edge>path:hover{stroke-width:8}</style>
<ellipse fill="#40bfc0" stroke="black" cx="156.447" cy="-526.236" rx="41.0244" ry="28.9828"/>
<text text-anchor="middle" x="156.447" y="-534.736" font-family="Helvetica,sans-Serif" font-size="10.00" fill="#000000">gidtools.</text>
<text text-anchor="middle" x="156.447" y="-523.736" font-family="Helvetica,sans-Serif" font-size="10.00" fill="#000000">gidconfig.</text>
<text text-anchor="middle" x="156.447" y="-512.736" font-family="Helvetica,sans-Serif" font-size="10.00" fill="#000000">functions</text>
</g>
<!-- gidlogger&#45;&gt;gidtools_gidconfig_functions -->
<g id="edge4" class="edge"><title>gidlogger&#45;&gt;gidtools_gidconfig_functions</title><style>.edge>path:hover{stroke-width:8}</style>
<path fill="none" stroke="black" d="M534.447,-685.21C520.657,-613.867 267.921,-692.348 209.447,-649.21 182.557,-629.373 169.132,-592.981 162.541,-565.093"/>
<polygon fill="#f91010" stroke="black" points="165.947,-564.283 160.41,-555.25 159.106,-565.764 165.947,-564.283"/>
<path fill="none" stroke="black" d="M536.542,-811.328C539.344,-784.322 543.034,-730.635 534.447,-686.21"/>
</g>
<!-- gidtools_gidfiles_classes -->
<g id="node10" class="node"><title>gidtools_gidfiles_classes</title><style>.edge>path:hover{stroke-width:8}</style>
<ellipse fill="#38a8a8" stroke="black" cx="466.447" cy="-526.236" rx="37.4533" ry="28.9828"/>
<text text-anchor="middle" x="466.447" y="-534.736" font-family="Helvetica,sans-Serif" font-size="10.00" fill="#000000">gidtools.</text>
<text text-anchor="middle" x="466.447" y="-523.736" font-family="Helvetica,sans-Serif" font-size="10.00" fill="#000000">gidfiles.</text>
<text text-anchor="middle" x="466.447" y="-512.736" font-family="Helvetica,sans-Serif" font-size="10.00" fill="#000000">classes</text>
</g>
<!-- gidlogger&#45;&gt;gidtools_gidfiles_classes -->
<g id="edge5" class="edge"><title>gidlogger&#45;&gt;gidtools_gidfiles_classes</title><style>.edge>path:hover{stroke-width:8}</style>
<path fill="none" stroke="black" d="M466.447,-619.219C456.313,-603.358 455.511,-582.603 457.595,-564.823"/>
<polygon fill="#f91010" stroke="black" points="461.083,-565.167 459.108,-554.758 454.161,-564.127 461.083,-565.167"/>
</g>
<!-- gidtools_gidfiles_functions -->
<g id="node12" class="node"><title>gidtools_gidfiles_functions</title><style>.edge>path:hover{stroke-width:8}</style>
<ellipse fill="#26d9d9" stroke="black" cx="534.447" cy="-620.219" rx="39.6962" ry="28.9828"/>
<text text-anchor="middle" x="534.447" y="-628.719" font-family="Helvetica,sans-Serif" font-size="10.00" fill="#000000">gidtools.</text>
<text text-anchor="middle" x="534.447" y="-617.719" font-family="Helvetica,sans-Serif" font-size="10.00" fill="#000000">gidfiles.</text>
<text text-anchor="middle" x="534.447" y="-606.719" font-family="Helvetica,sans-Serif" font-size="10.00" fill="#000000">functions</text>
</g>
<!-- gidlogger&#45;&gt;gidtools_gidfiles_functions -->
<g id="edge6" class="edge"><title>gidlogger&#45;&gt;gidtools_gidfiles_functions</title><style>.edge>path:hover{stroke-width:8}</style>
<path fill="none" stroke="black" d="M534.447,-685.21C532.822,-676.917 532.162,-667.902 532.038,-659.327"/>
<polygon fill="#f91010" stroke="black" points="535.539,-659.192 532.123,-649.163 528.54,-659.133 535.539,-659.192"/>
</g>
<!-- gidtools_gidjinja_classes -->
<g id="node13" class="node"><title>gidtools_gidjinja_classes</title><style>.edge>path:hover{stroke-width:8}</style>
<ellipse fill="#4cb3b3" stroke="black" cx="667.447" cy="-620.219" rx="37.4533" ry="28.9828"/>
<text text-anchor="middle" x="667.447" y="-628.719" font-family="Helvetica,sans-Serif" font-size="10.00" fill="#000000">gidtools.</text>
<text text-anchor="middle" x="667.447" y="-617.719" font-family="Helvetica,sans-Serif" font-size="10.00" fill="#000000">gidjinja.</text>
<text text-anchor="middle" x="667.447" y="-606.719" font-family="Helvetica,sans-Serif" font-size="10.00" fill="#000000">classes</text>
</g>
<!-- gidlogger&#45;&gt;gidtools_gidjinja_classes -->
<g id="edge7" class="edge"><title>gidlogger&#45;&gt;gidtools_gidjinja_classes</title><style>.edge>path:hover{stroke-width:8}</style>
<path fill="none" stroke="black" d="M534.447,-685.21C526.791,-646.152 580.744,-666.803 616.447,-649.21 620.48,-647.223 624.653,-645.08 628.795,-642.897"/>
<polygon fill="#f91010" stroke="black" points="630.588,-645.906 637.746,-638.095 627.279,-639.738 630.588,-645.906"/>
</g>
<!-- gidtools_gidjinja_data -->
<g id="node14" class="node"><title>gidtools_gidjinja_data</title><style>.edge>path:hover{stroke-width:8}</style>
<ellipse fill="#4cb3b3" stroke="black" cx="760.447" cy="-620.219" rx="37.4533" ry="28.9828"/>
<text text-anchor="middle" x="760.447" y="-628.719" font-family="Helvetica,sans-Serif" font-size="10.00" fill="#000000">gidtools.</text>
<text text-anchor="middle" x="760.447" y="-617.719" font-family="Helvetica,sans-Serif" font-size="10.00" fill="#000000">gidjinja.</text>
<text text-anchor="middle" x="760.447" y="-606.719" font-family="Helvetica,sans-Serif" font-size="10.00" fill="#000000">data</text>
</g>
<!-- gidlogger&#45;&gt;gidtools_gidjinja_data -->
<g id="edge8" class="edge"><title>gidlogger&#45;&gt;gidtools_gidjinja_data</title><style>.edge>path:hover{stroke-width:8}</style>
<path fill="none" stroke="black" d="M534.447,-685.21C526.643,-645.394 675.587,-663.8 713.447,-649.21 716.884,-647.886 720.358,-646.32 723.779,-644.617"/>
<polygon fill="#f91010" stroke="black" points="725.493,-647.67 732.65,-639.858 722.184,-641.502 725.493,-647.67"/>
</g>
<!-- gidtools_gidstuff_classes -->
<g id="node20" class="node"><title>gidtools_gidstuff_classes</title><style>.edge>path:hover{stroke-width:8}</style>
<ellipse fill="#38a8a8" stroke="black" cx="503.447" cy="-107.418" rx="37.4533" ry="28.9828"/>
<text text-anchor="middle" x="503.447" y="-115.918" font-family="Helvetica,sans-Serif" font-size="10.00" fill="#000000">gidtools.</text>
<text text-anchor="middle" x="503.447" y="-104.918" font-family="Helvetica,sans-Serif" font-size="10.00" fill="#000000">gidstuff.</text>
<text text-anchor="middle" x="503.447" y="-93.9178" font-family="Helvetica,sans-Serif" font-size="10.00" fill="#000000">classes</text>
</g>
<!-- gidlogger&#45;&gt;gidtools_gidstuff_classes -->
<g id="edge9" class="edge"><title>gidlogger&#45;&gt;gidtools_gidstuff_classes</title><style>.edge>path:hover{stroke-width:8}</style>
<path fill="none" stroke="black" d="M401.447,-381.818C374.462,-344.585 462.259,-374.19 498.447,-345.818 510.28,-336.541 512.117,-331.886 517.447,-317.827"/>
<path fill="none" stroke="black" d="M517.447,-315.827C539.887,-256.641 491.187,-231.002 517.447,-173.409"/>
</g>
<!-- gidtools_gidstuff_functions -->
<g id="node22" class="node"><title>gidtools_gidstuff_functions</title><style>.edge>path:hover{stroke-width:8}</style>
<ellipse fill="#38a8a8" stroke="black" cx="661.447" cy="-316.827" rx="39.6962" ry="28.9828"/>
<text text-anchor="middle" x="661.447" y="-325.327" font-family="Helvetica,sans-Serif" font-size="10.00" fill="#000000">gidtools.</text>
<text text-anchor="middle" x="661.447" y="-314.327" font-family="Helvetica,sans-Serif" font-size="10.00" fill="#000000">gidstuff.</text>
<text text-anchor="middle" x="661.447" y="-303.327" font-family="Helvetica,sans-Serif" font-size="10.00" fill="#000000">functions</text>
</g>
<!-- gidlogger&#45;&gt;gidtools_gidstuff_functions -->
<g id="edge10" class="edge"><title>gidlogger&#45;&gt;gidtools_gidstuff_functions</title><style>.edge>path:hover{stroke-width:8}</style>
<path fill="none" stroke="black" d="M534.447,-685.21C528.177,-658.924 564.967,-668.927 583.447,-649.21 586.198,-646.276 659.584,-530.8 661.447,-527.236"/>
</g>
<!-- gidtools_gidtriumvirate_classes -->
<g id="node24" class="node"><title>gidtools_gidtriumvirate_classes</title><style>.edge>path:hover{stroke-width:8}</style>
<ellipse fill="#3ab0b0" stroke="black" cx="308.447" cy="-316.827" rx="54.3945" ry="28.9828"/>
<text text-anchor="middle" x="308.447" y="-325.327" font-family="Helvetica,sans-Serif" font-size="10.00" fill="#000000">gidtools.</text>
<text text-anchor="middle" x="308.447" y="-314.327" font-family="Helvetica,sans-Serif" font-size="10.00" fill="#000000">gidtriumvirate.</text>
<text text-anchor="middle" x="308.447" y="-303.327" font-family="Helvetica,sans-Serif" font-size="10.00" fill="#000000">classes</text>
</g>
<!-- gidlogger&#45;&gt;gidtools_gidtriumvirate_classes -->
<g id="edge11" class="edge"><title>gidlogger&#45;&gt;gidtools_gidtriumvirate_classes</title><style>.edge>path:hover{stroke-width:8}</style>
<path fill="none" stroke="black" d="M401.447,-381.818C392.013,-364.549 375.673,-350.982 359.295,-340.87"/>
<polygon fill="#f91010" stroke="black" points="360.641,-337.605 350.237,-335.607 357.124,-343.657 360.641,-337.605"/>
</g>
<!-- gidtools_gidtriumvirate_data -->
<g id="node25" class="node"><title>gidtools_gidtriumvirate_data</title><style>.edge>path:hover{stroke-width:8}</style>
<ellipse fill="#40bfc0" stroke="black" cx="54.4472" cy="-316.827" rx="54.3945" ry="28.9828"/>
<text text-anchor="middle" x="54.4472" y="-325.327" font-family="Helvetica,sans-Serif" font-size="10.00" fill="#000000">gidtools.</text>
<text text-anchor="middle" x="54.4472" y="-314.327" font-family="Helvetica,sans-Serif" font-size="10.00" fill="#000000">gidtriumvirate.</text>
<text text-anchor="middle" x="54.4472" y="-303.327" font-family="Helvetica,sans-Serif" font-size="10.00" fill="#000000">data</text>
</g>
<!-- gidlogger&#45;&gt;gidtools_gidtriumvirate_data -->
<g id="edge12" class="edge"><title>gidlogger&#45;&gt;gidtools_gidtriumvirate_data</title><style>.edge>path:hover{stroke-width:8}</style>
<path fill="none" stroke="black" d="M534.447,-685.21C528.177,-658.924 504.196,-668.672 485.447,-649.21 475.015,-638.382 474.543,-633.889 466.447,-621.219"/>
<path fill="none" stroke="black" d="M466.447,-619.219C458.352,-606.548 456.183,-603.466 447.447,-591.227 435.828,-574.949 427.803,-573.826 420.447,-555.227 392.094,-483.541 438.407,-450.471 401.447,-382.818"/>
<path fill="none" stroke="black" d="M401.447,-381.818C364.244,-330.487 179.556,-362.692 118.447,-345.818 113.461,-344.441 108.359,-342.746 103.319,-340.877"/>
<polygon fill="#f91010" stroke="black" points="104.336,-337.516 93.7495,-337.106 101.77,-344.029 104.336,-337.516"/>
</g>
<!-- gidtools_gidtriumvirate_functions -->
<g id="node26" class="node"><title>gidtools_gidtriumvirate_functions</title><style>.edge>path:hover{stroke-width:8}</style>
<ellipse fill="#40bfc0" stroke="black" cx="181.447" cy="-316.827" rx="54.3945" ry="28.9828"/>
<text text-anchor="middle" x="181.447" y="-325.327" font-family="Helvetica,sans-Serif" font-size="10.00" fill="#000000">gidtools.</text>
<text text-anchor="middle" x="181.447" y="-314.327" font-family="Helvetica,sans-Serif" font-size="10.00" fill="#000000">gidtriumvirate.</text>
<text text-anchor="middle" x="181.447" y="-303.327" font-family="Helvetica,sans-Serif" font-size="10.00" fill="#000000">functions</text>
</g>
<!-- gidlogger&#45;&gt;gidtools_gidtriumvirate_functions -->
<g id="edge13" class="edge"><title>gidlogger&#45;&gt;gidtools_gidtriumvirate_functions</title><style>.edge>path:hover{stroke-width:8}</style>
<path fill="none" stroke="black" d="M401.447,-381.818C367.333,-319.374 313.001,-368.171 245.447,-345.818 240.606,-344.216 235.629,-342.386 230.691,-340.444"/>
<polygon fill="#f91010" stroke="black" points="231.87,-337.145 221.288,-336.606 229.224,-343.626 231.87,-337.145"/>
</g>
<!-- gidtools_gidtriumvirate_sql_classes -->
<g id="node27" class="node"><title>gidtools_gidtriumvirate_sql_classes</title><style>.edge>path:hover{stroke-width:8}</style>
<ellipse fill="#3ab0b0" stroke="black" cx="435.447" cy="-316.827" rx="54.3945" ry="28.9828"/>
<text text-anchor="middle" x="435.447" y="-325.327" font-family="Helvetica,sans-Serif" font-size="10.00" fill="#000000">gidtools.</text>
<text text-anchor="middle" x="435.447" y="-314.327" font-family="Helvetica,sans-Serif" font-size="10.00" fill="#000000">gidtriumvirate.</text>
<text text-anchor="middle" x="435.447" y="-303.327" font-family="Helvetica,sans-Serif" font-size="10.00" fill="#000000">sql_classes</text>
</g>
<!-- gidlogger&#45;&gt;gidtools_gidtriumvirate_sql_classes -->
<g id="edge14" class="edge"><title>gidlogger&#45;&gt;gidtools_gidtriumvirate_sql_classes</title><style>.edge>path:hover{stroke-width:8}</style>
<path fill="none" stroke="black" d="M401.447,-381.818C395.989,-371.828 398.638,-360.904 404.345,-350.956"/>
<polygon fill="#f91010" stroke="black" points="407.346,-352.764 410.02,-342.512 401.537,-348.86 407.346,-352.764"/>
</g>
<!-- gidtools_gidtriumvirate_sql_phraser -->
<g id="node28" class="node"><title>gidtools_gidtriumvirate_sql_phraser</title><style>.edge>path:hover{stroke-width:8}</style>
<ellipse fill="#4cb3b3" stroke="black" cx="870.447" cy="-620.219" rx="54.3945" ry="28.9828"/>
<text text-anchor="middle" x="870.447" y="-628.719" font-family="Helvetica,sans-Serif" font-size="10.00" fill="#000000">gidtools.</text>
<text text-anchor="middle" x="870.447" y="-617.719" font-family="Helvetica,sans-Serif" font-size="10.00" fill="#000000">gidtriumvirate.</text>
<text text-anchor="middle" x="870.447" y="-606.719" font-family="Helvetica,sans-Serif" font-size="10.00" fill="#000000">sql_phraser</text>
</g>
<!-- gidlogger&#45;&gt;gidtools_gidtriumvirate_sql_phraser -->
<g id="edge15" class="edge"><title>gidlogger&#45;&gt;gidtools_gidtriumvirate_sql_phraser</title><style>.edge>path:hover{stroke-width:8}</style>
<path fill="none" stroke="black" d="M534.447,-685.21C522.719,-625.377 747.716,-665.587 806.447,-649.21 811.43,-647.821 816.529,-646.117 821.568,-644.243"/>
<polygon fill="#f91010" stroke="black" points="823.12,-647.393 831.136,-640.465 820.549,-640.882 823.12,-647.393"/>
</g>
<!-- gidtools_gidcolor -->
<g id="node2" class="node"><title>gidtools_gidcolor</title><style>.edge>path:hover{stroke-width:8}</style>
<ellipse fill="#4cb3b3" stroke="black" cx="622.447" cy="-743.423" rx="37.4533" ry="21.4286"/>
<text text-anchor="middle" x="622.447" y="-746.423" font-family="Helvetica,sans-Serif" font-size="10.00" fill="#000000">gidtools.</text>
<text text-anchor="middle" x="622.447" y="-735.423" font-family="Helvetica,sans-Serif" font-size="10.00" fill="#000000">gidcolor</text>
</g>
<!-- gidtools_gidcolor_enums -->
<g id="node3" class="node"><title>gidtools_gidcolor_enums</title><style>.edge>path:hover{stroke-width:8}</style>
<ellipse fill="#47c2c2" stroke="black" cx="622.447" cy="-829.628" rx="37.4533" ry="28.9828"/>
<text text-anchor="middle" x="622.447" y="-838.128" font-family="Helvetica,sans-Serif" font-size="10.00" fill="#000000">gidtools.</text>
<text text-anchor="middle" x="622.447" y="-827.128" font-family="Helvetica,sans-Serif" font-size="10.00" fill="#000000">gidcolor.</text>
<text text-anchor="middle" x="622.447" y="-816.128" font-family="Helvetica,sans-Serif" font-size="10.00" fill="#000000">enums</text>
</g>
<!-- gidtools_gidcolor_enums&#45;&gt;gidtools_gidcolor -->
<g id="edge16" class="edge"><title>gidtools_gidcolor_enums&#45;&gt;gidtools_gidcolor</title><style>.edge>path:hover{stroke-width:8}</style>
<path fill="none" stroke="black" d="M622.447,-800.589C622.447,-792.381 622.447,-783.368 622.447,-775.01"/>
<polygon fill="#47c2c2" stroke="black" points="625.947,-774.884 622.447,-764.884 618.947,-774.884 625.947,-774.884"/>
</g>
<!-- gidtools_gidconfig -->
<g id="node4" class="node"><title>gidtools_gidconfig</title><style>.edge>path:hover{stroke-width:8}</style>
<ellipse fill="#38a8a8" stroke="black" cx="259.447" cy="-440.032" rx="38.7821" ry="21.4286"/>
<text text-anchor="middle" x="259.447" y="-443.032" font-family="Helvetica,sans-Serif" font-size="10.00" fill="#000000">gidtools.</text>
<text text-anchor="middle" x="259.447" y="-432.032" font-family="Helvetica,sans-Serif" font-size="10.00" fill="#000000">gidconfig</text>
</g>
<!-- gidtools_gidconfig_classes&#45;&gt;gidtools_gidconfig -->
<g id="edge17" class="edge"><title>gidtools_gidconfig_classes&#45;&gt;gidtools_gidconfig</title><style>.edge>path:hover{stroke-width:8}</style>
<path fill="none" stroke="black" d="M390.403,-591.565C382.591,-565.102 367.898,-525.189 344.447,-497.245 331.492,-481.808 313.238,-468.979 296.965,-459.494"/>
<polygon fill="#33cccc" stroke="black" points="298.61,-456.404 288.174,-454.573 295.19,-462.512 298.61,-456.404"/>
</g>
<!-- gidtools_gidconfig_classes&#45;&gt;gidtools_gidconfig_factories -->
<g id="edge18" class="edge"><title>gidtools_gidconfig_classes&#45;&gt;gidtools_gidconfig_factories</title><style>.edge>path:hover{stroke-width:8}</style>
<path fill="none" stroke="black" d="M372.514,-596.952C358.95,-584.84 342.002,-569.704 327.365,-556.633"/>
<polygon fill="#33cccc" stroke="black" points="329.298,-553.667 319.508,-549.616 324.635,-558.888 329.298,-553.667"/>
</g>
<!-- gidtools_gidconfig_data&#45;&gt;gidtools_gidconfig -->
<g id="edge19" class="edge"><title>gidtools_gidconfig_data&#45;&gt;gidtools_gidconfig</title><style>.edge>path:hover{stroke-width:8}</style>
<path fill="none" stroke="black" d="M251.543,-591.746C248.7,-580.525 245.85,-567.356 244.447,-555.227 241.487,-529.628 241.097,-522.796 244.447,-497.245 245.586,-488.558 247.675,-479.305 249.94,-470.867"/>
<polygon fill="#33cccc" stroke="black" points="253.357,-471.647 252.737,-461.07 246.626,-469.725 253.357,-471.647"/>
</g>
<!-- gidtools_gidconfig_data&#45;&gt;gidtools_gidconfig_factories -->
<g id="edge20" class="edge"><title>gidtools_gidconfig_data&#45;&gt;gidtools_gidconfig_factories</title><style>.edge>path:hover{stroke-width:8}</style>
<path fill="none" stroke="black" d="M269.759,-592.119C273.111,-583.308 276.89,-573.379 280.464,-563.986"/>
<polygon fill="#33cccc" stroke="black" points="283.803,-565.052 284.088,-554.461 277.261,-562.562 283.803,-565.052"/>
</g>
<!-- gidtools_gidconfig_factories&#45;&gt;gidtools_gidconfig -->
<g id="edge21" class="edge"><title>gidtools_gidconfig_factories&#45;&gt;gidtools_gidconfig</title><style>.edge>path:hover{stroke-width:8}</style>
<path fill="none" stroke="black" d="M283.18,-498.13C279.482,-489.232 275.357,-479.307 271.596,-470.26"/>
<polygon fill="#35a1a1" stroke="black" points="274.766,-468.768 267.696,-460.877 268.302,-471.454 274.766,-468.768"/>
</g>
<!-- gidtools_gidconfig_functions&#45;&gt;gidtools_gidconfig -->
<g id="edge22" class="edge"><title>gidtools_gidconfig_functions&#45;&gt;gidtools_gidconfig</title><style>.edge>path:hover{stroke-width:8}</style>
<path fill="none" stroke="black" d="M182.705,-503.77C197.289,-491.847 215.461,-476.991 230.46,-464.729"/>
<polygon fill="#40bfc0" stroke="black" points="232.897,-467.257 238.424,-458.218 228.467,-461.838 232.897,-467.257"/>
</g>
<!-- gidtools_gidfiles -->
<g id="node9" class="node"><title>gidtools_gidfiles</title><style>.edge>path:hover{stroke-width:8}</style>
<ellipse fill="#0bdfdf" stroke="black" cx="531.447" cy="-440.032" rx="37.4533" ry="21.4286"/>
<text text-anchor="middle" x="531.447" y="-443.032" font-family="Helvetica,sans-Serif" font-size="10.00" fill="#000000">gidtools.</text>
<text text-anchor="middle" x="531.447" y="-432.032" font-family="Helvetica,sans-Serif" font-size="10.00" fill="#000000">gidfiles</text>
</g>
<!-- gidtools_gidfiles&#45;&gt;gidtools_gidstuff_classes -->
<g id="edge23" class="edge"><title>gidtools_gidfiles&#45;&gt;gidtools_gidstuff_classes</title><style>.edge>path:hover{stroke-width:8}</style>
<path fill="none" stroke="black" d="M517.447,-381.818C507.039,-355.351 507.364,-344.42 517.447,-317.827"/>
</g>
<!-- gidtools_gidfiles&#45;&gt;gidtools_gidstuff_functions -->
<g id="edge24" class="edge"><title>gidtools_gidfiles&#45;&gt;gidtools_gidstuff_functions</title><style>.edge>path:hover{stroke-width:8}</style>
<path fill="none" stroke="black" d="M517.447,-381.818C509.349,-361.226 568.984,-341.107 613.984,-329.085"/>
<polygon fill="#0bdfdf" stroke="black" points="615.113,-332.408 623.908,-326.5 613.348,-325.634 615.113,-332.408"/>
</g>
<!-- gidtools_gidfiles&#45;&gt;gidtools_gidtriumvirate_classes -->
<g id="edge25" class="edge"><title>gidtools_gidfiles&#45;&gt;gidtools_gidtriumvirate_classes</title><style>.edge>path:hover{stroke-width:8}</style>
<path fill="none" stroke="black" d="M517.447,-381.818C493.147,-320.024 435.312,-367.198 372.447,-345.818 367.69,-344.2 362.795,-342.373 357.933,-340.446"/>
<polygon fill="#0bdfdf" stroke="black" points="359.248,-337.202 348.667,-336.647 356.592,-343.679 359.248,-337.202"/>
<path fill="none" stroke="black" d="M527.759,-418.865C525.439,-407.976 522.011,-394.424 517.447,-382.818"/>
</g>
<!-- gidtools_gidfiles&#45;&gt;gidtools_gidtriumvirate_sql_classes -->
<g id="edge26" class="edge"><title>gidtools_gidfiles&#45;&gt;gidtools_gidtriumvirate_sql_classes</title><style>.edge>path:hover{stroke-width:8}</style>
<path fill="none" stroke="black" d="M517.447,-381.818C511.039,-365.522 497.72,-352.391 483.646,-342.364"/>
<polygon fill="#0bdfdf" stroke="black" points="485.581,-339.448 475.318,-336.818 481.702,-345.274 485.581,-339.448"/>
</g>
<!-- gidtools_gidfiles_classes&#45;&gt;gidtools_gidfiles -->
<g id="edge27" class="edge"><title>gidtools_gidfiles_classes&#45;&gt;gidtools_gidfiles</title><style>.edge>path:hover{stroke-width:8}</style>
<path fill="none" stroke="black" d="M485.248,-500.881C493.236,-490.533 502.575,-478.434 510.759,-467.833"/>
<polygon fill="#38a8a8" stroke="black" points="513.685,-469.769 517.025,-459.714 508.144,-465.492 513.685,-469.769"/>
</g>
<!-- gidtools_gidfiles_data -->
<g id="node11" class="node"><title>gidtools_gidfiles_data</title><style>.edge>path:hover{stroke-width:8}</style>
<ellipse fill="#47c2c2" stroke="black" cx="596.447" cy="-526.236" rx="37.4533" ry="28.9828"/>
<text text-anchor="middle" x="596.447" y="-534.736" font-family="Helvetica,sans-Serif" font-size="10.00" fill="#000000">gidtools.</text>
<text text-anchor="middle" x="596.447" y="-523.736" font-family="Helvetica,sans-Serif" font-size="10.00" fill="#000000">gidfiles.</text>
<text text-anchor="middle" x="596.447" y="-512.736" font-family="Helvetica,sans-Serif" font-size="10.00" fill="#000000">data</text>
</g>
<!-- gidtools_gidfiles_data&#45;&gt;gidtools_gidfiles -->
<g id="edge28" class="edge"><title>gidtools_gidfiles_data&#45;&gt;gidtools_gidfiles</title><style>.edge>path:hover{stroke-width:8}</style>
<path fill="none" stroke="black" d="M577.647,-500.881C569.659,-490.533 560.319,-478.434 552.136,-467.833"/>
<polygon fill="#47c2c2" stroke="black" points="554.75,-465.492 545.869,-459.714 549.209,-469.769 554.75,-465.492"/>
</g>
<!-- gidtools_gidfiles_functions&#45;&gt;gidtools_gidfiles -->
<g id="edge29" class="edge"><title>gidtools_gidfiles_functions&#45;&gt;gidtools_gidfiles</title><style>.edge>path:hover{stroke-width:8}</style>
<path fill="none" stroke="black" d="M533.972,-590.985C533.423,-558.398 532.524,-505.006 531.96,-471.502"/>
<polygon fill="#26d9d9" stroke="black" points="535.458,-471.314 531.79,-461.374 528.459,-471.432 535.458,-471.314"/>
</g>
<!-- gidtools_gidfiles_functions&#45;&gt;gidtools_gidfiles_classes -->
<g id="edge30" class="edge"><title>gidtools_gidfiles_functions&#45;&gt;gidtools_gidfiles_classes</title><style>.edge>path:hover{stroke-width:8}</style>
<path fill="none" stroke="black" d="M515.866,-594.084C508.095,-583.572 498.96,-571.216 490.672,-560.005"/>
<polygon fill="#26d9d9" stroke="black" points="493.295,-557.665 484.536,-551.705 487.666,-561.827 493.295,-557.665"/>
</g>
<!-- gidtools_gidfiles_functions&#45;&gt;gidtools_gidstuff_functions -->
<g id="edge31" class="edge"><title>gidtools_gidfiles_functions&#45;&gt;gidtools_gidstuff_functions</title><style>.edge>path:hover{stroke-width:8}</style>
<path fill="none" stroke="black" d="M566.133,-602.457C593.385,-587.681 630.182,-566.761 642.447,-555.227 653.401,-544.927 655.73,-541.143 661.447,-527.236"/>
<path fill="none" stroke="black" d="M661.447,-525.236C684.279,-469.702 677.367,-398.514 669.772,-355.627"/>
<polygon fill="#26d9d9" stroke="black" points="673.179,-354.805 667.896,-345.621 666.299,-356.095 673.179,-354.805"/>
</g>
<!-- gidtools_gidssentials -->
<g id="node15" class="node"><title>gidtools_gidssentials</title><style>.edge>path:hover{stroke-width:8}</style>
<ellipse fill="#46a4a4" stroke="black" cx="846.447" cy="-743.423" rx="48.1667" ry="21.4286"/>
<text text-anchor="middle" x="846.447" y="-746.423" font-family="Helvetica,sans-Serif" font-size="10.00" fill="#000000">gidtools.</text>
<text text-anchor="middle" x="846.447" y="-735.423" font-family="Helvetica,sans-Serif" font-size="10.00" fill="#000000">gidssentials</text>
</g>
<!-- gidtools_gidssentials_classes -->
<g id="node16" class="node"><title>gidtools_gidssentials_classes</title><style>.edge>path:hover{stroke-width:8}</style>
<ellipse fill="#47c2c2" stroke="black" cx="728.447" cy="-829.628" rx="50.41" ry="28.9828"/>
<text text-anchor="middle" x="728.447" y="-838.128" font-family="Helvetica,sans-Serif" font-size="10.00" fill="#000000">gidtools.</text>
<text text-anchor="middle" x="728.447" y="-827.128" font-family="Helvetica,sans-Serif" font-size="10.00" fill="#000000">gidssentials.</text>
<text text-anchor="middle" x="728.447" y="-816.128" font-family="Helvetica,sans-Serif" font-size="10.00" fill="#000000">classes</text>
</g>
<!-- gidtools_gidssentials_classes&#45;&gt;gidtools_gidssentials -->
<g id="edge32" class="edge"><title>gidtools_gidssentials_classes&#45;&gt;gidtools_gidssentials</title><style>.edge>path:hover{stroke-width:8}</style>
<path fill="none" stroke="black" d="M759.45,-806.504C776.081,-794.637 796.574,-780.013 813.493,-767.939"/>
<polygon fill="#47c2c2" stroke="black" points="815.868,-770.544 821.975,-761.887 811.802,-764.846 815.868,-770.544"/>
</g>
<!-- gidtools_gidssentials_data -->
<g id="node17" class="node"><title>gidtools_gidssentials_data</title><style>.edge>path:hover{stroke-width:8}</style>
<ellipse fill="#47c2c2" stroke="black" cx="846.447" cy="-829.628" rx="50.41" ry="28.9828"/>
<text text-anchor="middle" x="846.447" y="-838.128" font-family="Helvetica,sans-Serif" font-size="10.00" fill="#000000">gidtools.</text>
<text text-anchor="middle" x="846.447" y="-827.128" font-family="Helvetica,sans-Serif" font-size="10.00" fill="#000000">gidssentials.</text>
<text text-anchor="middle" x="846.447" y="-816.128" font-family="Helvetica,sans-Serif" font-size="10.00" fill="#000000">data</text>
</g>
<!-- gidtools_gidssentials_data&#45;&gt;gidtools_gidssentials -->
<g id="edge33" class="edge"><title>gidtools_gidssentials_data&#45;&gt;gidtools_gidssentials</title><style>.edge>path:hover{stroke-width:8}</style>
<path fill="none" stroke="black" d="M846.447,-800.589C846.447,-792.381 846.447,-783.368 846.447,-775.01"/>
<polygon fill="#47c2c2" stroke="black" points="849.947,-774.884 846.447,-764.884 842.947,-774.884 849.947,-774.884"/>
</g>
<!-- gidtools_gidssentials_functions -->
<g id="node18" class="node"><title>gidtools_gidssentials_functions</title><style>.edge>path:hover{stroke-width:8}</style>
<ellipse fill="#47c2c2" stroke="black" cx="964.447" cy="-829.628" rx="50.41" ry="28.9828"/>
<text text-anchor="middle" x="964.447" y="-838.128" font-family="Helvetica,sans-Serif" font-size="10.00" fill="#000000">gidtools.</text>
<text text-anchor="middle" x="964.447" y="-827.128" font-family="Helvetica,sans-Serif" font-size="10.00" fill="#000000">gidssentials.</text>
<text text-anchor="middle" x="964.447" y="-816.128" font-family="Helvetica,sans-Serif" font-size="10.00" fill="#000000">functions</text>
</g>
<!-- gidtools_gidssentials_functions&#45;&gt;gidtools_gidssentials -->
<g id="edge34" class="edge"><title>gidtools_gidssentials_functions&#45;&gt;gidtools_gidssentials</title><style>.edge>path:hover{stroke-width:8}</style>
<path fill="none" stroke="black" d="M933.444,-806.504C916.814,-794.637 896.32,-780.013 879.401,-767.939"/>
<polygon fill="#47c2c2" stroke="black" points="881.092,-764.846 870.919,-761.887 877.026,-770.544 881.092,-764.846"/>
</g>
<!-- gidtools_gidstuff -->
<g id="node19" class="node"><title>gidtools_gidstuff</title><style>.edge>path:hover{stroke-width:8}</style>
<ellipse fill="#46a4a4" stroke="black" cx="596.447" cy="-21.2132" rx="37.4533" ry="21.4286"/>
<text text-anchor="middle" x="596.447" y="-24.2132" font-family="Helvetica,sans-Serif" font-size="10.00" fill="#000000">gidtools.</text>
<text text-anchor="middle" x="596.447" y="-13.2132" font-family="Helvetica,sans-Serif" font-size="10.00" fill="#000000">gidstuff</text>
</g>
<!-- gidtools_gidstuff_classes&#45;&gt;gidtools_gidstuff -->
<g id="edge35" class="edge"><title>gidtools_gidstuff_classes&#45;&gt;gidtools_gidstuff</title><style>.edge>path:hover{stroke-width:8}</style>
<path fill="none" stroke="black" d="M527.397,-84.733C540.354,-73.0015 556.393,-58.4794 569.751,-46.3849"/>
<polygon fill="#38a8a8" stroke="black" points="572.198,-48.8903 577.262,-39.5839 567.5,-43.7012 572.198,-48.8903"/>
</g>
<!-- gidtools_gidstuff_data -->
<g id="node21" class="node"><title>gidtools_gidstuff_data</title><style>.edge>path:hover{stroke-width:8}</style>
<ellipse fill="#47c2c2" stroke="black" cx="596.447" cy="-107.418" rx="37.4533" ry="28.9828"/>
<text text-anchor="middle" x="596.447" y="-115.918" font-family="Helvetica,sans-Serif" font-size="10.00" fill="#000000">gidtools.</text>
<text text-anchor="middle" x="596.447" y="-104.918" font-family="Helvetica,sans-Serif" font-size="10.00" fill="#000000">gidstuff.</text>
<text text-anchor="middle" x="596.447" y="-93.9178" font-family="Helvetica,sans-Serif" font-size="10.00" fill="#000000">data</text>
</g>
<!-- gidtools_gidstuff_data&#45;&gt;gidtools_gidstuff -->
<g id="edge36" class="edge"><title>gidtools_gidstuff_data&#45;&gt;gidtools_gidstuff</title><style>.edge>path:hover{stroke-width:8}</style>
<path fill="none" stroke="black" d="M596.447,-78.3789C596.447,-70.171 596.447,-61.1574 596.447,-52.7997"/>
<polygon fill="#47c2c2" stroke="black" points="599.947,-52.674 596.447,-42.674 592.947,-52.6741 599.947,-52.674"/>
</g>
<!-- gidtools_gidstuff_functions&#45;&gt;gidtools_gidstuff -->
<g id="edge37" class="edge"><title>gidtools_gidstuff_functions&#45;&gt;gidtools_gidstuff</title><style>.edge>path:hover{stroke-width:8}</style>
<path fill="none" stroke="black" d="M664.437,-287.917C668.204,-242.262 671.098,-149.573 642.447,-78.4264 637.857,-67.0269 630.095,-56.1603 622.242,-47.0729"/>
<polygon fill="#38a8a8" stroke="black" points="624.723,-44.5994 615.395,-39.5763 619.554,-49.3203 624.723,-44.5994"/>
</g>
<!-- gidtools_gidtriumvirate -->
<g id="node23" class="node"><title>gidtools_gidtriumvirate</title><style>.edge>path:hover{stroke-width:8}</style>
<ellipse fill="#38a8a8" stroke="black" cx="308.447" cy="-230.622" rx="52.1524" ry="21.4286"/>
<text text-anchor="middle" x="308.447" y="-233.622" font-family="Helvetica,sans-Serif" font-size="10.00" fill="#000000">gidtools.</text>
<text text-anchor="middle" x="308.447" y="-222.622" font-family="Helvetica,sans-Serif" font-size="10.00" fill="#000000">gidtriumvirate</text>
</g>
<!-- gidtools_gidtriumvirate&#45;&gt;gidtools_gidstuff_classes -->
<g id="edge38" class="edge"><title>gidtools_gidtriumvirate&#45;&gt;gidtools_gidstuff_classes</title><style>.edge>path:hover{stroke-width:8}</style>
<path fill="none" stroke="black" d="M358.873,-224.692C416.38,-217.723 504.197,-202.469 517.447,-173.409"/>
<path fill="none" stroke="black" d="M517.447,-172.409C521.397,-163.746 521.266,-153.906 519.301,-144.584"/>
<polygon fill="#38a8a8" stroke="black" points="522.617,-143.443 516.556,-134.754 515.875,-145.327 522.617,-143.443"/>
</g>
<!-- gidtools_gidtriumvirate_classes&#45;&gt;gidtools_gidtriumvirate -->
<g id="edge39" class="edge"><title>gidtools_gidtriumvirate_classes&#45;&gt;gidtools_gidtriumvirate</title><style>.edge>path:hover{stroke-width:8}</style>
<path fill="none" stroke="black" d="M308.447,-287.788C308.447,-279.58 308.447,-270.567 308.447,-262.209"/>
<polygon fill="#3ab0b0" stroke="black" points="311.947,-262.083 308.447,-252.083 304.947,-262.083 311.947,-262.083"/>
</g>
<!-- gidtools_gidtriumvirate_data&#45;&gt;gidtools_gidtriumvirate -->
<g id="edge40" class="edge"><title>gidtools_gidtriumvirate_data&#45;&gt;gidtools_gidtriumvirate</title><style>.edge>path:hover{stroke-width:8}</style>
<path fill="none" stroke="black" d="M94.7657,-297.286C102.554,-293.964 110.701,-290.663 118.447,-287.836 163.981,-271.216 216.952,-255.861 255.379,-245.414"/>
<polygon fill="#40bfc0" stroke="black" points="256.573,-248.717 265.316,-242.734 254.75,-241.959 256.573,-248.717"/>
</g>
<!-- gidtools_gidtriumvirate_functions&#45;&gt;gidtools_gidtriumvirate -->
<g id="edge41" class="edge"><title>gidtools_gidtriumvirate_functions&#45;&gt;gidtools_gidtriumvirate</title><style>.edge>path:hover{stroke-width:8}</style>
<path fill="none" stroke="black" d="M214.815,-293.703C232.878,-281.727 255.176,-266.943 273.48,-254.807"/>
<polygon fill="#40bfc0" stroke="black" points="275.708,-257.529 282.109,-249.086 271.84,-251.695 275.708,-257.529"/>
</g>
<!-- gidtools_gidtriumvirate_sql_classes&#45;&gt;gidtools_gidtriumvirate -->
<g id="edge42" class="edge"><title>gidtools_gidtriumvirate_sql_classes&#45;&gt;gidtools_gidtriumvirate</title><style>.edge>path:hover{stroke-width:8}</style>
<path fill="none" stroke="black" d="M402.079,-293.703C384.017,-281.727 361.719,-266.943 343.415,-254.807"/>
<polygon fill="#3ab0b0" stroke="black" points="345.054,-251.695 334.786,-249.086 341.186,-257.529 345.054,-251.695"/>
</g>
</g>
</svg>
